<?xml version="1.0" encoding="UTF-8" standalone="no"?>
<svg width="229px" height="215px" viewBox="0 0 229 215" version="1.1" xmlns="http://www.w3.org/2000/svg" xmlns:xlink="http://www.w3.org/1999/xlink" xmlns:sketch="http://www.bohemiancoding.com/sketch/ns">
    <!-- Generator: Sketch 3.2.1 (9971) - http://www.bohemiancoding.com/sketch -->
    <title>Rectangle 1318 + Group 4</title>
    <desc>Created with Sketch.</desc>
    <defs></defs>
    <g id="训练过后" stroke="none" stroke-width="1" fill="none" fill-rule="evenodd" sketch:type="MSPage">
        <g id="Portrait---5/5S/5C-75" sketch:type="MSArtboardGroup" transform="translate(-206.000000, -313.000000)">
            <g id="Rectangle-1318-+-Group-4" sketch:type="MSLayerGroup" transform="translate(207.000000, 316.000000)">
                <g id="Group-15" sketch:type="MSShapeGroup">
                    <path d="M188.364132,137.497241 C175.459599,166.495028 146.295702,186.724644 112.385604,186.724644 C78.4755068,186.724644 49.3116095,166.495028 36.4070769,137.497241 M188.441688,70.7534674 C175.576727,41.662196 146.363808,21.3512384 112.385604,21.3512384 C78.407401,21.3512384 49.1944818,41.662196 36.3295205,70.7534674" id="Oval" stroke="#FFFFFF" stroke-width="1.5"></path>
                    <g id="Group" transform="translate(21.151239, 0.000000)" fill="#FFFFFF">
                        <path d="M11.6358514,41.2587586 L8.66740636,45.3417741 L17.1308738,51.4380997 L15.2557682,54.0153622 L6.7923008,47.9190366 L3.82385575,52.0020521 L1.50121744,50.3271135 L9.30754814,39.5894595 L11.6358514,41.2587586 L11.6358514,41.2587586 Z" id="Shape"></path>
                        <path d="M13.5846016,35.0778402 L23.4756418,43.9713697 L21.3342826,46.3286908 L11.4432424,37.4408008 L13.5846016,35.0778402 L13.5846016,35.0778402 Z" id="Shape"></path>
                        <path d="M26.9256094,22.766759 L35.6893203,32.7261586 L33.2930374,34.8184221 L28.8120449,29.7315713 L30.9364092,36.8712088 L29.8883895,37.7848118 L23.1470735,34.7620268 L27.5827461,39.8037614 L25.1694683,41.9073039 L16.4057574,31.9535438 L18.8190353,29.8443618 L18.8586901,29.889478 L26.614036,33.0137743 L24.5293265,24.8703015 L24.5406564,24.8815805 L24.5293265,24.8703015 L26.9256094,22.766759 L26.9256094,22.766759 Z" id="Shape"></path>
                        <path d="M34.7036153,21.0918203 L35.9782339,23.0882118 L40.521541,20.2120545 L42.0510833,22.6088523 L37.5021112,25.4793701 L38.7767298,27.4757616 L44.5323408,23.832629 L46.0562181,26.2237873 L37.6040807,31.5700562 L30.4718816,20.3812403 L38.924019,15.0406109 L40.4592263,17.4543272 L34.7036153,21.0918203 L34.7036153,21.0918203 Z" id="Shape"></path>
                        <path d="M54.6499799,11.0027116 L55.6866696,13.8337527 L60.7341592,11.9952679 L61.7141993,14.6740418 L56.6667097,16.5068872 L58.2189119,20.7478093 L55.227807,21.830598 L51.6588749,12.0911398 L50.6788349,9.41236579 L60.0826875,6.00045369 L61.0627276,8.67358813 L54.6499799,11.0027116 L54.6499799,11.0027116 Z" id="Shape"></path>
                        <path d="M77.5251347,8.74690195 C78.3408906,12.5253831 75.9332777,16.23619 72.1434118,17.053921 C68.336551,17.871652 64.6033347,15.4692147 63.7875789,11.7020126 C62.971823,7.92353142 65.3737709,4.19016644 69.1862967,3.37243544 C72.9704976,2.55470444 76.7093788,4.97969982 77.5251347,8.74690195 L77.5251347,8.74690195 Z M74.5170348,9.39544722 C74.0581721,7.28062567 71.9564677,5.9102213 69.8321034,6.36702276 C67.6907442,6.82946374 66.336816,8.93300624 66.7956787,11.0478278 C67.2545414,13.1626493 69.3505808,14.5104956 71.497605,14.0536942 C73.6219693,13.5968927 74.9758975,11.5102688 74.5170348,9.39544722 L74.5170348,9.39544722 Z" id="Shape"></path>
                        <path d="M88.991037,14.7022394 L86.6287439,11.5102688 L84.2891106,11.6286988 L84.4590598,14.9334599 L81.2017012,15.0970061 L80.5275696,1.83848487 C80.5275696,1.83848487 85.4221049,1.59034581 87.002632,1.51139247 C89.7274833,1.37040437 91.8915024,3.59237688 92.0444566,6.49109229 C92.1407611,8.4085305 91.2456956,9.82405106 89.8747725,10.6474216 L93.0075017,14.4992166 L88.991037,14.7022394 L88.991037,14.7022394 Z M84.1474864,8.7130648 L86.8496777,8.58335575 C87.9373523,8.5269605 88.8040929,7.76562474 88.7417782,6.66591754 C88.6851285,5.58876843 87.7617382,4.74847933 86.6740636,4.80487457 L83.9492124,4.94586267 L84.1474864,8.7130648 L84.1474864,8.7130648 Z" id="Shape"></path>
                        <path d="M115.899651,15.2154361 C114.324789,16.6760729 112.092791,17.3584553 109.826802,16.924212 C106.036936,16.1910738 103.561344,12.5479412 104.29779,8.76946004 C105.034236,5.00225791 108.699473,2.52086729 112.489339,3.24836591 C114.755327,3.68824879 116.568118,5.17708316 117.480179,7.11707947 L114.817642,8.17731001 C114.092526,7.20731185 113.20879,6.50237134 111.905847,6.24859275 C109.781482,5.83690749 107.719433,7.241149 107.30589,9.35597055 C106.892347,11.4707921 108.280265,13.5179394 110.410294,13.9352642 C111.713238,14.1890427 112.619633,13.9296246 113.831937,13.2472422 L115.899651,15.2154361 L115.899651,15.2154361 Z" id="Shape"></path>
                        <path d="M133.370424,9.89172535 L128.878101,22.3607132 L125.870001,21.2948432 L127.518508,16.7211891 L122.040481,14.7642742 L120.391974,19.3322888 L117.383874,18.2664187 L121.876196,5.78615177 L124.884296,6.86330088 L123.003526,12.0798607 L128.481553,14.0367756 L130.362324,8.81457624 L133.370424,9.89172535 L133.370424,9.89172535 Z" id="Shape"></path>
                        <path d="M140.661242,26.7087863 L135.05292,23.5393738 L133.370424,24.6729181 L130.237694,22.9021075 L142.564672,14.6345652 L144.666377,15.8188652 L143.629687,30.4759885 L140.547942,28.7333755 L140.661242,26.7087863 L140.661242,26.7087863 Z M140.859516,23.8495476 L141.244734,19.1687426 L137.488858,21.949028 L140.859516,23.8495476 L140.859516,23.8495476 Z" id="Shape"></path>
                        <path d="M163.168174,29.1168631 L154.851995,39.46539 L152.359408,37.4746379 L152.155469,27.1599483 L147.181624,33.3521458 L144.689037,31.3613938 L153.005215,21.012867 L155.497802,23.003619 L155.497802,33.5777267 L160.681251,27.1261111 L163.168174,29.1168631 L163.168174,29.1168631 Z" id="Shape"></path>
                        <path d="M166.640801,48.7311281 L166.629471,48.7198491 C164.505107,48.9172324 162.318428,48.1389781 160.777556,46.4302023 C158.194329,43.565324 158.420927,39.1608556 161.293068,36.5835931 C164.165208,34.0176096 168.612211,34.2601092 171.195438,37.1193479 C172.73631,38.8337632 173.280148,40.8639919 172.84961,42.973174 L170.068109,42.2005592 C170.085104,41.0952124 169.801855,40.1421328 168.912455,39.1608556 C167.467887,37.5535913 164.95264,37.4182427 163.343788,38.8563213 C161.729271,40.3000395 161.610306,42.7814301 163.060539,44.3886945 C163.808315,45.2177046 164.82801,45.6519479 165.85337,45.6857851 L166.89006,44.7609031 L164.199198,41.7832344 L166.096964,40.0800981 L170.657266,45.1387512 L166.640801,48.7311281 L166.640801,48.7311281 Z" id="Shape"></path>
                        <path d="M176.242928,48.7536862 L174.265853,50.0733349 L177.268288,54.5285589 L174.900329,56.1076257 L171.897895,51.6467621 L169.92082,52.9664108 L173.71635,58.6059349 L171.354057,60.1850017 L165.77406,51.8949012 L176.843415,44.5127641 L182.423412,52.797225 L180.038459,54.3875708 L176.242928,48.7536862 L176.242928,48.7536862 Z" id="Shape"></path>
                    </g>
                    <g id="Group" transform="translate(64.623542, 33.837145)" fill="#FFFFFF">
                        <path d="M47.1559106,1.06023054 L51.047746,8.91608767 L59.7548072,10.1793411 L53.4610239,16.2925852 L54.9452464,24.9210572 L47.1559106,20.8436812 L39.3722398,24.9210572 L40.8621273,16.2925852 L34.557014,10.1793411 L43.2697402,8.91608767 L47.1559106,1.06023054 Z" id="Shape"></path>
                        <path d="M85.8986506,15.3338661 L88.793451,21.1707736 L95.2685134,22.1069346 L90.5892469,26.6580306 L91.6939164,33.0758091 L85.8986506,30.0473846 L80.1090497,33.0758091 L81.2137191,26.6580306 L76.5231228,22.1069346 L83.0038501,21.1707736 L85.8986506,15.3338661 Z" id="Shape"></path>
                        <path d="M9.63113953,15.3338661 L12.52594,21.1707736 L19.0010024,22.1069346 L14.3160709,26.6580306 L15.4207404,33.0758091 L9.63113953,30.0473846 L3.83587371,33.0758091 L4.94620812,26.6580306 L0.255611735,22.1069346 L6.73633911,21.1707736 L9.63113953,15.3338661 Z" id="Shape"></path>
                    </g>
                    <g id="Group" transform="translate(85.602164, 147.553937)" fill="#FFFFFF">
                        <path d="M20.6063401,18.3688905 C17.2267657,18.3688905 14.4778207,15.6389573 14.4778207,12.2835847 C14.4778207,8.92821208 17.2267657,6.19827884 20.6063401,6.19827884 C23.9855403,6.19827884 26.7348596,8.92821208 26.7348596,12.2835847 C26.7348596,12.7967943 26.3156876,13.212639 25.7992078,13.212639 L16.452046,13.212639 C16.8802003,15.097876 18.5804668,16.5107819 20.6063401,16.5107819 C21.9645323,16.5107819 23.2523635,15.8582141 24.0529072,14.7656462 C24.3568069,14.3509164 24.9428992,14.2587542 25.3598257,14.5601394 C25.7778749,14.8618963 25.869943,15.4431126 25.5667918,15.8578425 C24.4151916,17.4305457 22.5611039,18.3688905 20.6063401,18.3688905 M16.452046,11.3545304 L24.7595114,11.3545304 C24.3321057,9.46929332 22.6318392,8.0563875 20.6059659,8.0563875 C18.5800925,8.0563875 16.8802003,9.46929332 16.452046,11.3545304" id="Shape"></path>
                        <path d="M35.0864878,18.3688905 C31.7069134,18.3688905 28.9579683,15.6389573 28.9579683,12.2835847 C28.9579683,8.92821208 31.7069134,6.19827884 35.0864878,6.19827884 C38.4656879,6.19827884 41.2150072,8.92821208 41.2150072,12.2835847 C41.2150072,12.7967943 40.7958352,13.212639 40.2793554,13.212639 L30.9321937,13.212639 C31.3603479,15.097876 33.0606144,16.5107819 35.0864878,16.5107819 C36.4446799,16.5107819 37.7328854,15.8582141 38.5330548,14.7656462 C38.8369545,14.3509164 39.4230468,14.2587542 39.8399733,14.5601394 C40.2576482,14.8618963 40.3500906,15.4431126 40.0469395,15.8578425 C38.8953392,17.4305457 37.0412515,18.3688905 35.0864878,18.3688905 M30.9325679,11.3545304 L39.2400333,11.3545304 C38.8126276,9.46929332 37.1123611,8.0563875 35.0864878,8.0563875 C33.0606144,8.0563875 31.3603479,9.46929332 30.9325679,11.3545304" id="Shape"></path>
                        <path d="M49.5670096,6.19827884 C47.9135257,6.19827884 46.4134887,6.85493444 45.3097938,7.91591448 L45.3097938,7.12733317 C45.3097938,6.61412356 44.8913703,6.19827884 44.374142,6.19827884 C43.8572879,6.19827884 43.4384902,6.61412356 43.4384902,7.12733317 L43.4384902,23.7574056 C43.4384902,24.2706152 43.8572879,24.6864599 44.374142,24.6864599 C44.8913703,24.6864599 45.3097938,24.2706152 45.3097938,23.7574056 L45.3097938,16.6512549 C46.4134887,17.7122349 47.9135257,18.3688905 49.5670096,18.3688905 C52.9462098,18.3688905 55.6955291,15.6389573 55.6955291,12.2835847 C55.6955291,8.92821208 52.9462098,6.19827884 49.5670096,6.19827884 L49.5670096,6.19827884 Z M49.5670096,16.5107819 C47.2200206,16.5107819 45.3097938,14.6143962 45.3097938,12.2835847 C45.3097938,9.95277319 47.2200206,8.0563875 49.5670096,8.0563875 C51.9143729,8.0563875 53.8242254,9.95277319 53.8242254,12.2835847 C53.8242254,14.6143962 51.9143729,16.5107819 49.5670096,16.5107819 L49.5670096,16.5107819 Z" id="Shape"></path>
                        <path d="M8.09592674,11.313652 L11.9669055,7.46996841 C12.3381721,7.10057641 12.3381721,6.50300866 11.9669055,6.13398829 C11.5948903,5.76496791 10.9934533,5.76496791 10.6214381,6.13398829 L6.61684833,10.1103408 C6.91475987,10.2322327 7.18834447,10.4124693 7.42263168,10.6458477 L8.09592674,11.313652 Z M6.79799053,11.2657128 C6.42634962,10.8963208 5.82453837,10.8963208 5.45289747,11.2657128 C5.44765782,11.2712871 5.44391521,11.2779763 5.43867556,11.2835506 L5.43755278,11.2813209 L1.90864836,14.7849706 L1.90864836,0.946148926 C1.90864836,0.424392016 1.48273965,0.00148648692 0.957651845,0.00148648692 C0.432564042,0.00148648692 0.00628107137,0.424392016 0.00628107137,0.946148926 L0.00628107137,17.0652415 C0.00628107137,17.446897 0.238322724,17.7913904 0.593496156,17.9378093 C0.711014025,17.9861201 0.835268587,18.0099039 0.956903324,18.0099039 C1.20541245,18.0099039 1.4479334,17.9140255 1.63019838,17.7330457 L6.125444,13.2694971 L10.6210639,17.7326741 C10.8070715,17.9169985 11.0507152,18.0095323 11.2936104,18.0095323 C11.5372541,18.0095323 11.7805236,17.9166269 11.9661569,17.7326741 C12.3377978,17.3636537 12.3377978,16.7657144 11.9661569,16.3970656 L6.79799053,11.2657128 Z" id="Shape"></path>
                    </g>
                    <g id="Group" transform="translate(21.151239, 147.780132)" fill="#FFFFFF">
                        <path d="M14.7685806,13.546137 L11.8624503,9.42928437 L3.30834334,15.4015404 L1.47855756,12.7904408 L10.0269995,6.82382421 L7.12653412,2.70133206 L9.47183231,1.06023054 L17.1138788,11.9163145 L14.7685806,13.546137 L14.7685806,13.546137 Z" id="Shape"></path>
                        <path d="M20.3145877,15.2549128 L10.2592633,23.9228614 L8.16888887,21.5204241 L18.2242132,12.8524755 L20.3145877,15.2549128 L20.3145877,15.2549128 Z" id="Shape"></path>
                        <path d="M32.2336877,26.6411121 L23.243378,36.4256864 L20.8810849,34.2770277 L25.4753767,29.2747698 L18.5697765,32.1734852 L17.5387517,31.2373242 L19.8217352,24.2217562 L15.2727631,29.1732584 L12.8991401,27.0076811 L21.8894498,17.2231067 L24.2630728,19.388684 L24.223418,19.4338002 L21.9574295,27.4644826 L29.8770596,24.4980929 L29.8657296,24.5150114 L29.8770596,24.4980929 L32.2336877,26.6411121 L32.2336877,26.6411121 Z" id="Shape"></path>
                        <path d="M34.9358791,31.9027881 L33.6046108,33.859703 L38.0629434,36.8712088 L36.4654214,39.2116114 L32.0070889,36.205745 L30.6758206,38.1682994 L36.3181322,41.9806177 L34.7206102,44.3210202 L26.4384219,38.7266123 L33.9105193,27.7633774 L42.1927076,33.3577853 L40.5838557,35.7207459 L34.9358791,31.9027881 L34.9358791,31.9027881 Z" id="Shape"></path>
                        <path d="M53.035463,41.9016644 L51.8854738,44.6875893 L56.8649837,46.7234575 L55.7773092,49.3683943 L50.7977993,47.3325261 L49.069983,51.5114135 L46.1185328,50.3045554 L50.0896778,40.6891667 L51.1773523,38.0555089 L60.4509107,41.8452691 L59.3632361,44.490206 L53.035463,41.9016644 L53.035463,41.9016644 Z" id="Shape"></path>
                        <path d="M72.687249,51.9230988 C71.7242039,55.6451847 67.9116781,57.8840758 64.1727969,56.9253567 C60.4112559,55.9666376 58.1622622,52.1712378 59.1253073,48.4435124 C60.0883525,44.7214265 63.9008783,42.4599773 67.6624193,43.4299754 C71.4069655,44.3886945 73.6502942,48.2010128 72.687249,51.9230988 L72.687249,51.9230988 Z M69.718804,51.161763 C70.2626413,49.0694996 69.0050176,46.9208409 66.9033132,46.3794466 C64.7846138,45.8380522 62.6375896,47.1182242 62.0994174,49.2048481 C61.5612451,51.2914721 62.8188687,53.4232122 64.9375681,53.970246 C67.0336075,54.5116404 69.1749667,53.248387 69.718804,51.161763 L69.718804,51.161763 Z" id="Shape"></path>
                        <path d="M83.0088271,59.6661654 L81.1450515,56.1640209 L78.8167482,55.9440795 L78.4938448,59.2319221 L75.2478162,58.9161087 L76.5450946,45.7139827 C76.5450946,45.7139827 81.4169701,46.1877027 82.9918322,46.3343304 C85.7053535,46.599388 87.5181444,49.1089762 87.2348958,51.9964126 C87.0479517,53.9082113 85.9546123,55.1714647 84.4760547,55.7861728 L87.002632,60.0552926 L83.0088271,59.6661654 L83.0088271,59.6661654 Z M79.1056617,53.034085 L81.8021882,53.2991427 C82.8841977,53.4062936 83.8472429,52.7803065 83.9548773,51.6805992 C84.0625118,50.6090897 83.2694158,49.6503706 82.1874062,49.5432196 L79.4738849,49.278162 L79.1056617,53.034085 L79.1056617,53.034085 Z" id="Shape"></path>
                        <path d="M112.211755,55.6000685 C111.186395,57.4893091 109.282965,58.8597135 106.988651,59.1698873 C103.147801,59.6943631 99.6185235,57.0212286 99.0916811,53.1976312 C98.5648388,49.3740339 101.250035,45.8380522 105.090886,45.319216 C107.385199,45.0034027 109.588873,45.8436918 111.084426,47.3945609 L108.897747,49.2556039 C107.895047,48.5619424 106.824367,48.1784548 105.504429,48.35328 C103.35174,48.6465353 101.844857,50.6429268 102.139436,52.7803065 C102.434014,54.9289652 104.416754,56.423439 106.569443,56.1414628 C107.889382,55.9609981 108.665483,55.4252433 109.600203,54.3875708 L112.211755,55.6000685 L112.211755,55.6000685 Z" id="Shape"></path>
                        <path d="M124.142185,41.1516077 L127.852741,53.851816 L124.787992,54.7315818 L123.428399,50.0846139 L117.859732,51.7031573 L119.219325,56.3501252 L116.154575,57.229891 L112.444019,44.5353222 L115.508768,43.6499169 L117.060971,48.9567091 L122.635303,47.3494447 L121.0831,42.037013 L124.142185,41.1516077 L124.142185,41.1516077 Z" id="Shape"></path>
                        <path d="M140.355333,46.2835746 L134.531743,49.0694996 L134.509083,51.0997283 L131.251724,52.6562369 L131.438668,37.8242884 L133.619682,36.7753369 L145.159229,45.9903194 L141.95852,47.5186304 L140.355333,46.2835746 L140.355333,46.2835746 Z M138.09501,44.4845664 L134.441103,41.4956186 L134.599722,46.1651446 L138.09501,44.4845664 L138.09501,44.4845664 Z" id="Shape"></path>
                        <path d="M150.96016,26.0940782 L158.488907,37.0009179 L155.86036,38.7999261 L145.895675,36.0083617 L150.399328,42.5389306 L147.770781,44.3322993 L140.242034,33.4254596 L142.870581,31.6264514 L153.02221,34.6830735 L148.331613,27.8874469 L150.96016,26.0940782 L150.96016,26.0940782 Z" id="Shape"></path>
                        <path d="M169.280678,23.7593152 L169.263683,23.7705943 C169.524272,25.8854158 168.799155,28.0904698 167.122324,29.6695365 C164.312498,32.3201129 159.865495,32.2186014 157.202959,29.4213975 C154.540422,26.6241935 154.659386,22.185888 157.469212,19.5296721 C159.146044,17.9449658 161.179769,17.3471763 163.315463,17.7250244 L162.613006,20.5222284 C161.497007,20.5335074 160.545292,20.8436812 159.582247,21.7572841 C158.007384,23.2461185 157.939405,25.7444277 159.434957,27.3178549 C160.93051,28.8800031 163.434427,28.9363984 165.009289,27.447564 C165.83071,26.6749492 166.232923,25.6541953 166.244253,24.6278019 L165.286873,23.6126876 L162.358083,26.3760544 L160.596276,24.5262905 L165.558791,19.8454855 L169.280678,23.7593152 L169.280678,23.7593152 Z" id="Shape"></path>
                        <path d="M167.088334,13.8957875 L168.946444,15.3789823 L172.311437,11.1944554 L174.537771,12.953987 L171.172778,17.1441534 L173.030889,18.6217087 L177.290947,13.320556 L179.517281,15.0913666 L173.263153,22.8795494 L162.86793,14.5950885 L169.122059,6.81254516 L171.359722,8.58899527 L167.088334,13.8957875 L167.088334,13.8957875 Z" id="Shape"></path>
                    </g>
                    <g id="Group" transform="translate(0.400104, 78.953338)" fill="#FFFFFF">
                        <path d="M26.1951721,33.3916225 C24.8015891,38.3487642 22.1673774,42.3810239 18.2868719,45.4771227 C14.2420823,48.6521748 8.9000142,50.8910659 2.26066763,52.1994355 L1.80180494,51.3817045 C7.18919282,47.6257814 10.724135,43.7739864 12.4122965,39.8375985 C12.5255959,39.2228904 12.2536773,38.6363799 11.6192005,38.0893461 L11.8061446,37.0460341 L26.1951721,33.3916225 L26.1951721,33.3916225 Z M22.2863418,1.17866055 L21.8897938,3.41755163 L23.1757423,2.97766875 C26.0932026,2.03022869 28.6254449,1.55650866 30.789464,1.55650866 L52.2143861,1.55650866 C57.5281294,1.55650866 59.7091434,4.20144549 58.7744231,9.48567961 L55.1035216,30.2165704 L7.47244139,30.2165704 L11.522896,7.35393948 C11.6305305,6.36138323 11.1603378,5.80307034 10.1179831,5.65644272 L10.3105921,4.56801456 L22.2863418,1.17866055 L22.2863418,1.17866055 Z M17.482446,28.3104112 L45.5523797,28.3104112 L49.0816569,8.39725145 C49.659484,5.15452507 48.2942259,3.53034211 45.0028774,3.53034211 L30.4439007,3.53034211 C28.2458918,3.53034211 25.832614,3.93638785 23.1984022,4.7428398 L21.5668904,5.28987365 L17.482446,28.3104112 L17.482446,28.3104112 Z M36.7036942,33.6059244 C41.8304934,35.4669673 46.1132119,37.7453351 49.5575145,40.4466672 C52.440985,42.9957321 53.6136341,45.7872965 53.0754618,48.8100815 C52.3786703,50.8854263 50.8377981,51.9456569 48.4471801,51.979494 C47.0592621,51.979494 45.9262678,51.1279259 45.0595272,49.407871 C42.697234,42.8885811 39.4795302,37.9821951 35.4120807,34.7056316 L36.7036942,33.6059244 L36.7036942,33.6059244 Z" id="Shape"></path>
                        <path d="M64.0371816,14.8488671 L78.1542905,14.8488671 C78.460199,13.320556 78.7547775,11.7527683 79.0436911,10.1455039 L79.9160967,5.22783888 C80.0350611,4.53417741 79.7688074,4.09429453 79.1003408,3.91382976 L79.2872848,2.87615731 L89.977086,0.518836221 L88.2719296,10.1455039 C87.9830161,11.7866055 87.6827726,13.3543932 87.3825291,14.8488671 L104.632367,14.8488671 C109.396608,14.8488671 111.419003,17.0595605 110.710882,21.4696684 L106.558458,44.9300888 C105.737037,49.5544986 102.740267,51.9851335 97.5794777,52.1994355 C94.8659564,52.1994355 91.761552,50.7106011 88.2605997,47.7216533 L89.1046804,46.6783413 C91.5972679,48.4942681 93.5063632,49.407871 94.8319666,49.407871 C95.9649609,49.407871 96.6334275,48.8439186 96.8373665,47.7160138 L101.561953,21.024146 C102.066135,18.1818258 100.961466,16.7606658 98.2536093,16.7606658 L86.991646,16.7606658 C85.7170275,22.7047242 84.3291094,27.7520983 82.827892,31.9084276 C79.5818633,40.9203872 74.3814195,46.824969 67.2208956,49.633452 C64.750968,50.7218801 61.3123303,51.4380997 56.8936526,51.7708316 L56.8256729,50.9474611 C59.9244123,49.5601382 62.366015,48.1728152 64.150481,46.7967713 C68.5861537,43.2607897 71.7925276,38.5123104 73.7526077,32.579531 C74.9875715,29.5511065 76.3414997,24.283791 77.8200572,16.7719448 L70.7898276,16.7719448 C69.9457469,16.7719448 68.4162046,17.3415367 66.2012007,18.4694416 L64.0371816,14.8488671 L64.0371816,14.8488671 Z M69.8494423,1.55650866 C72.3306999,2.87051779 74.3530947,4.34807311 75.9279567,5.98917464 C77.0212962,7.04940518 77.468829,8.14347286 77.270555,9.27137769 C76.4094793,12.254686 74.7779675,13.8281132 72.3703547,13.9747408 C70.1326909,13.9747408 69.2149655,12.254686 69.6001836,8.83149481 C69.7418079,6.57004563 69.3905797,4.51161931 68.5521639,2.65057635 L69.8494423,1.55650866 L69.8494423,1.55650866 Z M87.9490262,24.0356519 C90.8778165,25.2819867 93.3024243,26.8102978 95.2115197,28.6262245 C96.8090416,30.3462794 97.4321885,32.2298805 97.0696303,34.2657487 C96.4068286,36.3410936 94.939601,37.4182427 92.6509526,37.4915565 C91.2970244,37.4915565 90.2263448,36.6963836 89.4445787,35.1342354 C88.9064064,30.6846509 88.0056759,27.3347735 86.7197274,25.0789639 L87.9490262,24.0356519 L87.9490262,24.0356519 Z" id="Shape"></path>
                        <path d="M120.505617,1.55650866 L135.279863,1.55650866 C139.85716,1.77081058 141.930539,3.7841207 141.522662,7.57388092 L138.605201,24.0300124 L127.229938,24.0300124 L123.451402,45.3643322 C123.298448,46.2328189 123.638347,46.6727018 124.482427,46.6727018 C126.720091,46.6727018 131.008474,45.1049141 137.347578,41.9693387 L137.89708,42.5727678 C134.747356,45.2628208 131.478667,47.3832818 128.096679,48.9059534 C124.992275,50.3383925 121.519647,51.0771702 117.701456,51.150484 C114.727346,51.0094959 113.486718,49.5093825 113.9909,46.6670623 L117.627812,26.156113 C117.916725,24.5150114 117.491852,23.2912347 116.347528,22.4904223 L116.534472,21.4527498 L128.221308,18.4468835 L127.581167,22.0561789 L129.507257,22.0561789 L132.413387,5.65080319 C132.458707,4.34243359 131.580637,3.62621402 129.767846,3.51342354 L128.504557,3.51342354 C127.405553,3.51342354 125.462467,3.93074833 122.675301,4.77667695 L120.505617,1.55650866 L120.505617,1.55650866 Z M155.583121,0.738777663 C155.090268,2.71261111 154.540766,4.55109598 153.945944,6.2598718 L163.836984,6.2598718 C165.083278,6.2598718 166.828089,5.69027986 169.077083,4.56801456 L170.583965,8.17167048 L167.55887,8.17167048 C165.315542,17.1497929 163.026893,23.9679776 160.69859,28.6262245 C158.585556,32.9009838 156.075973,36.5215583 153.164178,39.5161457 C153.957274,41.0444567 154.874999,42.5614887 155.928684,44.0559626 C157.843444,46.4978766 159.996133,48.7988024 162.403746,50.9474611 L161.859909,51.5452507 C158.364622,50.7782754 155.056278,49.4135105 151.929214,47.4396771 C150.439327,46.5317137 149.085398,45.4038089 147.8561,44.0503231 C143.658356,47.073108 138.384267,49.5714172 132.033834,51.5396111 L131.523987,50.7162406 C136.548817,47.3268866 140.854195,43.6104402 144.428792,39.5556223 C142.570681,36.5723141 140.973159,33.0194139 139.607901,28.8912822 C139.352977,27.8761678 138.769485,27.2332621 137.86309,26.9794835 L138.050034,25.9361715 L148.547226,22.4904223 C149.119388,26.1053573 149.71421,29.1507003 150.337357,31.6264514 C150.546961,31.2655218 150.756565,30.9158714 150.954839,30.5831394 C153.906289,25.5188467 156.438531,18.0408377 158.557231,8.15475191 L153.232158,8.15475191 C152.359752,10.3823639 151.391042,12.3505579 150.314697,14.0649732 C147.669156,18.4412439 144.185198,21.7572841 139.86849,24.0187333 L139.341647,23.5901295 C141.086459,19.3153702 142.446052,15.4579357 143.426092,11.9896283 C144.258843,9.14730816 144.88199,6.67155706 145.289868,4.55673551 C145.357847,4.15632929 145.057604,3.8066788 144.377807,3.50778402 L144.570416,2.41935586 L155.583121,0.738777663 L155.583121,0.738777663 Z" id="Shape"></path>
                        <path d="M222.180525,7.79946189 L224.423854,10.9688745 L210.691963,10.9688745 L207.202341,30.6564532 L213.847352,30.6564532 C216.334275,31.0963361 217.410619,32.2298805 217.087716,34.0514468 C216.793138,35.7263854 215.422214,37.604347 212.957952,39.6796919 C209.468329,42.4148611 205.31024,44.7157869 200.47802,46.5768299 C204.902362,48.2517686 210.533344,49.6390915 217.370965,50.7275197 L216.747818,51.7764712 C209.717588,51.7764712 203.299175,51.280193 197.509575,50.2876368 C195.759098,50.0000211 194.093597,49.6052544 192.496075,49.0920577 C191.006187,49.4529872 189.49364,49.8026377 187.975428,50.1297301 C181.523025,51.3704254 174.49846,51.9907731 166.879074,51.9907731 L166.935724,50.7275197 C173.682705,49.6390915 179.851859,48.1051409 185.443185,46.136947 C182.055532,44.3548574 178.934133,42.037013 176.067658,39.1946928 C175.331211,38.6138218 174.447476,38.3205666 173.422116,38.3205666 L173.025568,36.8430112 L185.256241,34.4913297 C187.618534,38.066788 190.309396,40.875271 193.323161,42.9111392 C196.756133,41.3095143 199.894528,39.5217852 202.732678,37.5592308 C204.726748,36.0309197 205.820088,34.7169106 206.018362,33.6172034 C206.109001,33.1096462 205.525509,32.7656353 204.273551,32.579531 L179.387331,32.579531 C178.650885,32.579531 176.770114,33.0701696 173.733689,34.0570863 L171.53568,30.6620928 L185.052302,30.6620928 L188.541925,10.974514 L182.112182,10.974514 C180.979188,10.974514 179.251372,11.4087573 176.934398,12.2828836 L174.702399,9.05707577 L197.498245,9.05707577 C197.260316,8.92172719 197.073372,8.76946004 196.914753,8.62283241 C196.44456,5.67336129 195.40787,3.46830735 193.799018,2.00767059 L194.444825,0.524475745 C195.611809,0.524475745 197.532235,0.766975283 200.194771,1.24069531 C203.004597,1.71441534 204.908027,2.4757511 205.888067,3.53034211 C206.38092,4.26911978 206.528209,5.17708316 206.3356,6.26551132 C205.797428,7.47236949 205.009997,8.39725145 203.978972,9.05143625 L216.997077,9.05143625 C217.931797,9.04579673 219.648283,8.63411146 222.180525,7.79946189 L222.180525,7.79946189 Z M185.732099,13.5348579 C184.667084,17.2513044 183.109217,20.1725779 181.047168,22.2873994 C179.285361,24.3627443 176.345241,26.2971011 172.221142,28.0848302 L171.677305,27.4250059 C173.722359,25.1691962 174.974318,22.9585028 175.427516,20.8042046 C175.699434,19.2758935 175.217912,18.345372 174.005608,18.0182796 L174.226542,16.7606658 L185.732099,13.5348579 L185.732099,13.5348579 Z M193.464785,30.6564532 L198.789858,30.6564532 L202.279481,10.9688745 L196.954407,10.9688745 L193.464785,30.6564532 L193.464785,30.6564532 Z M213.42248,13.5348579 C216.090681,15.2154361 218.23204,17.0933977 219.835227,19.1687426 C220.951227,20.5165888 221.381764,21.9208303 221.126841,23.3758276 C220.24877,26.4775659 218.600263,28.1186674 216.186986,28.3047717 C213.700063,28.3047717 212.646378,26.5847168 213.031596,23.1615257 C213.258195,20.0203107 212.974947,17.1779905 212.181851,14.6232861 L213.42248,13.5348579 L213.42248,13.5348579 Z" id="Shape"></path>
                    </g>
                </g>
            </g>
        </g>
    </g>
</svg>