<?xml version="1.0" encoding="utf-8"?>
<!-- Generator: Adobe Illustrator 16.0.0, SVG Export Plug-In . SVG Version: 6.00 Build 0)  -->
<!DOCTYPE svg PUBLIC "-//W3C//DTD SVG 1.1//EN" "http://www.w3.org/Graphics/SVG/1.1/DTD/svg11.dtd">
<svg version="1.1" id="图层_1" xmlns:sketch="http://www.bohemiancoding.com/sketch/ns"
	 xmlns="http://www.w3.org/2000/svg" xmlns:xlink="http://www.w3.org/1999/xlink" x="0px" y="0px" width="213px" height="189px"
	 viewBox="0 0 213 189" enable-background="new 0 0 213 189" xml:space="preserve">
<title>Group</title>
<desc>Created with Sketch.</desc>
<g>
	<g>
		<path id="path-5" fill="#FFFFFF" d="M110.189-0.038L97.273,21.744h8.933l-3.017,16.36l13.382-23.09l-9.125,0.007L110.189-0.038z"
			/>
	</g>
	<g>
		<path id="path-3" fill="#FFFFFF" d="M76.65,6.272l-8.646,14.576l5.979-0.007l-2.016,10.959l8.954-15.451h-6.115L76.65,6.272z"/>
	</g>
	<g>
		<path id="path-1" fill="#FFFFFF" d="M140.527,6.272l-8.645,14.576l5.979-0.007l-2.016,10.959l8.953-15.451h-6.115L140.527,6.272z"
			/>
	</g>
	<g id="Group-12" transform="translate(72.820513, 152.040729)" sketch:type="MSShapeGroup">
		<path id="Shape" fill="#FFFFFF" d="M24.939,28.437c-4.09,0-7.417-3.335-7.417-7.433c0-4.099,3.327-7.434,7.417-7.434
			c4.09,0,7.417,3.335,7.417,7.434c0,0.627-0.507,1.135-1.132,1.135H19.911c0.518,2.303,2.576,4.028,5.028,4.028
			c1.644,0,3.202-0.797,4.171-2.132c0.368-0.506,1.077-0.619,1.582-0.25c0.506,0.368,0.617,1.078,0.25,1.584
			C29.549,27.291,27.305,28.437,24.939,28.437 M19.911,19.869h10.054c-0.517-2.303-2.575-4.029-5.027-4.029
			S20.429,17.567,19.911,19.869"/>
		<path id="Shape_1_" fill="#FFFFFF" d="M42.463,28.437c-4.09,0-7.416-3.335-7.416-7.433c0-4.099,3.326-7.434,7.416-7.434
			s7.418,3.335,7.418,7.434c0,0.627-0.508,1.135-1.133,1.135H37.435c0.519,2.303,2.576,4.028,5.027,4.028
			c1.645,0,3.203-0.797,4.172-2.132c0.367-0.506,1.077-0.619,1.582-0.25c0.506,0.368,0.617,1.078,0.25,1.584
			C47.073,27.291,44.829,28.437,42.463,28.437 M37.435,19.869H47.49c-0.518-2.303-2.574-4.029-5.027-4.029
			C40.012,15.84,37.954,17.567,37.435,19.869"/>
		<path id="Shape_2_" fill="#FFFFFF" d="M59.988,13.571c-2.001,0-3.816,0.803-5.152,2.099v-0.964c0-0.627-0.506-1.135-1.132-1.135
			s-1.132,0.508-1.132,1.135v20.313c0,0.627,0.506,1.135,1.132,1.135s1.132-0.508,1.132-1.135v-8.68
			c1.336,1.296,3.151,2.098,5.152,2.098c4.09,0,7.418-3.335,7.418-7.433C67.406,16.906,64.078,13.571,59.988,13.571L59.988,13.571z
			 M59.988,26.167c-2.84,0-5.152-2.316-5.152-5.163c0-2.848,2.312-5.164,5.152-5.164c2.842,0,5.152,2.316,5.152,5.164
			C65.14,23.851,62.83,26.167,59.988,26.167L59.988,26.167z"/>
		<path id="Shape_3_" fill="#FFFFFF" d="M9.798,19.819l4.685-4.694c0.45-0.451,0.45-1.181,0-1.632c-0.45-0.451-1.178-0.451-1.628,0
			L8.008,18.35c0.36,0.148,0.691,0.369,0.975,0.654L9.798,19.819z M8.227,19.76c-0.45-0.451-1.178-0.451-1.628,0
			c-0.006,0.008-0.011,0.016-0.017,0.022L6.581,19.78L2.31,24.059V7.156c0-0.638-0.516-1.153-1.151-1.153S0.008,6.518,0.008,7.156
			v19.688c0,0.467,0.281,0.888,0.71,1.066c0.143,0.059,0.293,0.088,0.44,0.088c0.301,0,0.594-0.117,0.815-0.338l5.44-5.452
			l5.441,5.452c0.225,0.225,0.52,0.338,0.814,0.338c0.295,0,0.589-0.113,0.814-0.338c0.45-0.451,0.45-1.182,0-1.632L8.227,19.76z"/>
	</g>
	<g id="Shape_4_" transform="translate(2.730769, 49.733037)" sketch:type="MSShapeGroup">
		<path fill="#FFFFFF" d="M47.963,69.685l-0.014-4.415l-6.026,0.028l-0.014-1.516l7.418-0.021l-0.014-4.401l-7.411,0.014v-1.749
			l8.789-0.021l-0.014-4.401l-8.782,0.014L41.82,23.801l8.776-0.021l-0.007-4.402l-8.783,0.027V17.65l7.405-0.021l-0.007-4.402
			l-7.412,0.021l-0.007-1.522h6.04l-0.014-4.402l-6.033,0.014l-4.374,0.014l-6.033,0.014v4.395l6.04-0.014v1.501L30,13.268v4.402
			l7.418-0.014l0.007,1.764l-8.79,0.027l0.007,4.381l8.803-0.027l0.062,29.428l-8.782,0.014l0.007,4.401l8.782-0.006l0.021,1.749
			l-7.425,0.015l0.014,4.415l7.412-0.028v1.516l-6.034,0.021l0.007,4.381l10.421-0.021H47.963z"/>
		<path fill="#FFFFFF" d="M0.581,69.706h9.119V42.545h8.446v-9.417H9.699V16.741h12.587V7.324H0.581V69.706z"/>
		<path fill="#FFFFFF" d="M73.92,69.706V16.741h8.625V7.324H56.169v9.417h8.625v52.966H73.92z"/>
		<path fill="#FFFFFF" d="M115.035,7.324h-8.357v35.4h-0.508l-0.76-2.886L96.53,7.324h-8.11v62.383h8.364V34.32h0.514l0.761,2.887
			l8.865,32.5h8.11V7.324z"/>
		<path fill="#FFFFFF" d="M145.003,60.289h-11.744V43.144h8.454V33.128h-8.454V16.741h11.744V7.324h-20.87v62.383h20.87V60.289z"/>
		<path fill="#FFFFFF" d="M163.905,15.046c1.433,0,2.372,1.199,2.954,2.893c0.59,1.777,0.68,4.064,0.68,6.097l8.961-0.833
			c0-3.486-0.515-7.64-2.291-11.049c-1.768-3.307-4.977-5.594-10.469-5.518c-4.312,0.096-7.268,2.053-9.201,4.76
			c-1.946,2.797-2.715,6.461-2.715,9.844c0,1.702,0.262,3.396,0.769,5.015c0.925,3.307,2.447,6.538,4.478,9.686
			c2.021,3.134,3.969,6.021,5.744,8.556c0.844,1.281,1.611,2.556,2.359,3.74c1.35,2.466,2.371,4.836,2.371,6.875
			c0,3.988-1.021,6.874-3.723,6.874c-1.933,0-2.961-1.356-3.544-3.389c-0.679-1.949-0.769-4.574-0.769-7.227l-8.96,0.854
			c0,4.678,0.432,9.176,2.282,12.558c1.858,3.403,5.156,5.607,10.99,5.607c4.984,0,8.118-1.867,10.065-4.746
			c1.933-2.893,2.618-6.792,2.618-10.953c0-3.409-1.104-6.633-2.707-9.761c-1.605-3.141-3.723-6.372-5.842-9.52
			c-1.762-2.625-3.537-5.084-4.895-7.467c-1.344-2.383-2.283-4.574-2.283-6.709C160.779,17.595,161.539,15.128,163.905,15.046
			L163.905,15.046z"/>
		<path fill="#FFFFFF" d="M195.217,15.046c1.446,0,2.379,1.199,2.955,2.893c0.604,1.777,0.686,4.064,0.686,6.097l8.961-0.833
			c0-3.486-0.508-7.64-2.277-11.049c-1.775-3.307-4.99-5.594-10.482-5.518c-4.299,0.096-7.26,2.053-9.201,4.76
			c-1.946,2.797-2.707,6.461-2.707,9.844c0,1.702,0.246,3.396,0.754,5.015c0.926,3.307,2.447,6.538,4.477,9.686
			c2.037,3.134,3.97,6.021,5.738,8.556c0.857,1.281,1.611,2.556,2.379,3.74c1.352,2.466,2.359,4.836,2.359,6.875
			c0,3.988-1.008,6.874-3.717,6.874c-1.939,0-2.955-1.356-3.551-3.389c-0.672-1.949-0.762-4.574-0.762-7.227l-8.961,0.854
			c0,4.678,0.426,9.176,2.283,12.558c1.865,3.403,5.163,5.607,10.99,5.607c4.984,0,8.111-1.867,10.051-4.746
			c1.947-2.893,2.619-6.792,2.619-10.953c0-3.409-1.097-6.633-2.701-9.761c-1.604-3.141-3.723-6.372-5.827-9.52
			c-1.782-2.625-3.552-5.084-4.902-7.467c-1.357-2.383-2.29-4.574-2.29-6.709C192.097,17.595,192.857,15.128,195.217,15.046
			L195.217,15.046z"/>
	</g>
	<rect id="Rectangle-path" x="0" y="143.426" sketch:type="MSShapeGroup" fill="#FFFFFF" width="212.545" height="0.913">
	</rect>
	<g id="SVGID_19_" sketch:type="MSShapeGroup">
		<path id="path-1_1_" fill="#FFFFFF" d="M140.527,6.272l-8.645,14.576l5.979-0.007l-2.016,10.959l8.953-15.451h-6.115
			L140.527,6.272z"/>
	</g>
	<g id="SVGID_21_" sketch:type="MSShapeGroup">
		<path id="path-3_1_" fill="#FFFFFF" d="M76.65,6.272l-8.646,14.576l5.979-0.007l-2.016,10.959l8.954-15.451h-6.115L76.65,6.272z"
			/>
	</g>
	<g id="SVGID_17_" sketch:type="MSShapeGroup">
		<path id="path-5_1_" fill="#FFFFFF" d="M110.189-0.038L97.273,21.744h8.933l-3.017,16.36l13.382-23.09l-9.125,0.007L110.189-0.038
			z"/>
	</g>
</g>
</svg>
